<?xml version="1.0" encoding="utf-8"?>
<!-- Generator: Adobe Illustrator 26.5.0, SVG Export Plug-In . SVG Version: 6.00 Build 0)  -->
<svg version="1.1" id="Layer_1" xmlns="http://www.w3.org/2000/svg" xmlns:xlink="http://www.w3.org/1999/xlink" x="0px" y="0px"
	 viewBox="0 0 2084.86 1080" style="enable-background:new 0 0 2084.86 1080;" xml:space="preserve">
<style type="text/css">
	.st0{fill:url(#SVGID_1_);}
	.st1{fill:url(#SVGID_00000072264830379374948650000013916573737865291148_);}
	.st2{fill:#FFFFFF;}
	.st3{fill:url(#SVGID_00000114045239837219164080000015119264596978420871_);}
	.st4{fill:url(#SVGID_00000154384849609722544170000002344185317186561964_);}
	.st5{fill:url(#SVGID_00000036960077906184359230000003219850523843756951_);}
	.st6{fill:url(#SVGID_00000094593055968728048330000017750306468771393207_);}
	.st7{fill:#232176;}
	.st8{fill:url(#SVGID_00000137842748007101199000000004353848147282845081_);}
	.st9{fill:url(#SVGID_00000043453592982785797110000005968771423260363930_);}
	.st10{fill:url(#SVGID_00000119797579017894213020000016553638811118627996_);}
	.st11{fill:url(#SVGID_00000177470793710122905580000015999948739071991716_);}
	.st12{fill:url(#SVGID_00000104674550816807924570000006067058681571261091_);}
	.st13{fill:url(#SVGID_00000147190030758418874740000005314285139566145434_);}
</style>
<path class="st2" d="M689.53,343.51c-3.83,0-6.94,3.11-6.94,6.94v234.78c0,54.25-19.27,77.83-65.26,77.83
	c-31.48,0-61.69-12.78-90.21-35.39c-4.37-3.46-10.78-0.43-10.78,5.15v70.8c0,4.12,1.89,8.23,5.46,10.3
	c28.59,16.6,53.23,27.14,95.53,28.36c94.72,2.76,152.5-52.24,152.5-148.2V350.45c0-3.83-3.11-6.94-6.94-6.94H689.53z
	 M1371.81,496.79c-58.37-6.48-75.47-16.5-75.47-38.9c0-26.52,27.13-43.04,70.16-43.04c51.18,0,94.81,23.21,113.74,35.06
	c4.39,2.76,10.07-0.47,10.07-5.65v-70.96c0-4.4-2.31-8.49-6.12-10.7c-25.79-14.97-71.41-24.99-116.51-24.99
	c-99.05,0-158.01,47.15-158.01,125.57c0,71.92,38.91,105.54,139.72,116.73c59.55,6.49,77.83,17.1,77.83,40.68
	c0,28.3-25.35,43.04-73.11,43.04c-58.54,0-111.34-27.85-132.68-40.75c-4.41-2.67-9.99,0.53-9.99,5.7v71.45
	c0,4.15,1.98,8.11,5.48,10.33c31.48,20,79.52,30.5,140.14,30.5c100.23,0,156.83-44.23,156.83-122.64
	C1513.9,543.38,1474.99,508,1371.81,496.79z M1108.43,537.16c-2.45-0.84-2.77-4.15-0.48-5.37c14.26-7.63,45.12-29.98,45.12-80.38
	c0-70.75-47.76-107.9-139.72-107.9H851.66c-3.83,0-6.94,3.11-6.94,6.94v377.59c0,3.83,3.11,6.94,6.94,6.94h176.43
	c91.38,0,139.14-37.13,139.14-109.07C1167.23,563.61,1125.85,543.05,1108.43,537.16z M931.99,425.3c0-2.19,1.77-3.96,3.96-3.96
	h76.22c35.36,0,53.06,12.97,53.06,39.49c0,27.13-18.29,40.68-58.97,40.68h-70.32c-2.19,0-3.96-1.77-3.96-3.96V425.3z
	 M1025.15,657.17h-89.19c-2.19,0-3.96-1.77-3.96-3.96v-74.62c0-2.19,1.77-3.96,3.96-3.96h83.87c40.09,0,58.97,14.74,58.97,41.85
	C1078.8,644.2,1061.11,657.17,1025.15,657.17z"/>
<linearGradient id="SVGID_1_" gradientUnits="userSpaceOnUse" x1="1896.6726" y1="1178.2667" x2="2064.3572" y2="656.5814" gradientTransform="matrix(1 0 0 1 -154.5045 -382.9268)">
	<stop  offset="0.5006" style="stop-color:#FFFFFF"/>
	<stop  offset="0.9017" style="stop-color:#FFFFFF;stop-opacity:0"/>
</linearGradient>
<path class="st0" d="M1854.94,310.6c-1.36-9.13-2.91-18.22-4.63-27.25h22.95c1.62,8.54,3.05,17.1,4.34,25.71
	c14.11,94.21,9.15,189.15-14.76,282.19c-18.51,72.04-47.52,139.62-86.51,201.6c-9.64,15.36-19.91,30.36-30.76,45.02h-25.36
	c32.19-42.42,59.18-87.97,80.76-136.21c16.22-36.2,29.38-73.92,39.42-112.98C1863.95,497,1868.84,403.43,1854.94,310.6z"/>
<path class="st2" d="M1771.75,370.45c-8.53-56.92-24.06-112-46.38-164.59h55.77c19.67,50.44,33.62,102.92,41.71,156.95
	c14.52,96.94,9.4,194.65-15.19,290.38c-4.2,16.4-8.96,32.57-14.23,48.48c-10.33,31.34-22.72,61.78-37.1,91.19
	c-7.44,15.29-15.43,30.29-23.94,45.02h-60.52c38.8-60.57,67.56-126.79,85.73-197.54c15.17-59.04,22.37-118.89,21.56-178.77
	C1778.78,431.19,1776.3,400.77,1771.75,370.45z"/>
<path class="st2" d="M1474.62,874.15c32.58-28.8,62.29-60.76,88.9-95.65c54.54-71.51,93.64-152.31,116.22-240.2
	c22.58-87.87,27.28-177.53,13.95-266.46c-3.34-22.29-7.77-44.3-13.28-65.98h70.87c4.2,18.39,7.73,36.99,10.54,55.78
	c9.97,66.58,10.8,133.51,2.51,199.93c-3.93,31.43-9.89,62.76-17.88,93.88c-24.89,96.86-67.99,185.95-128.17,264.83
	c-14.29,18.74-29.4,36.7-45.28,53.87H1474.62z"/>
<linearGradient id="SVGID_00000145780884482500581960000009356633466086904204_" gradientUnits="userSpaceOnUse" x1="-12387.793" y1="-93.1628" x2="-12220.1084" y2="-614.8481" gradientTransform="matrix(-1 0 0 -1 -12044.0977 191.4973)">
	<stop  offset="0.5006" style="stop-color:#FFFFFF"/>
	<stop  offset="0.9017" style="stop-color:#FFFFFF;stop-opacity:0"/>
</linearGradient>
<path style="fill:url(#SVGID_00000145780884482500581960000009356633466086904204_);" d="M230.92,769.4
	c1.36,9.13,2.91,18.22,4.63,27.25H212.6c-1.62-8.54-3.05-17.1-4.34-25.71c-14.11-94.21-9.15-189.15,14.76-282.19
	c18.51-72.04,47.52-139.62,86.51-201.6c9.64-15.36,19.91-30.36,30.76-45.02h25.36c-32.19,42.42-59.18,87.97-80.76,136.21
	c-16.22,36.2-29.38,73.92-39.42,112.98C221.92,583,217.03,676.57,230.92,769.4z"/>
<path class="st2" d="M314.11,709.55c8.53,56.92,24.06,112,46.38,164.59h-55.77c-19.67-50.44-33.62-102.92-41.71-156.95
	c-14.52-96.94-9.4-194.65,15.19-290.38c4.2-16.4,8.96-32.57,14.23-48.48c10.33-31.34,22.72-61.78,37.1-91.19
	c7.44-15.29,15.43-30.29,23.94-45.02h60.52c-38.8,60.57-67.56,126.79-85.73,197.54c-15.17,59.04-22.37,118.89-21.56,178.77
	C307.08,648.81,309.56,679.23,314.11,709.55z"/>
<path class="st2" d="M611.24,205.85c-32.58,28.8-62.29,60.76-88.9,95.65c-54.54,71.51-93.64,152.31-116.22,240.2
	c-22.58,87.87-27.28,177.53-13.95,266.46c3.34,22.29,7.77,44.3,13.28,65.98h-70.87c-4.2-18.39-7.73-36.99-10.54-55.78
	c-9.97-66.58-10.8-133.51-2.51-199.93c3.93-31.43,9.89-62.76,17.88-93.88c24.89-96.86,67.99-185.95,128.17-264.83
	c14.29-18.74,29.4-36.7,45.28-53.87H611.24z"/>
</svg>
