<?xml version="1.0" encoding="utf-8"?>
<!-- Generator: Adobe Illustrator 26.5.0, SVG Export Plug-In . SVG Version: 6.00 Build 0)  -->
<svg version="1.1" id="Layer_1" xmlns="http://www.w3.org/2000/svg" xmlns:xlink="http://www.w3.org/1999/xlink" x="0px" y="0px"
	 viewBox="0 0 2084.86 1080" style="enable-background:new 0 0 2084.86 1080;" xml:space="preserve">
<style type="text/css">
	.st0{fill:url(#SVGID_1_);}
	.st1{fill:#FFFFFF;}
	.st2{fill:url(#SVGID_00000173161227990241999450000000544372546868640685_);}
	.st3{fill:url(#SVGID_00000159468528392758406600000010419008760069880247_);}
	.st4{fill:url(#SVGID_00000003100472159655056050000013972873774699203748_);}
	.st5{fill:url(#SVGID_00000183244410860484872870000013162788270999254966_);}
	.st6{fill:url(#SVGID_00000008861106582966322490000015799111924427199158_);}
	.st7{fill:url(#SVGID_00000071529989069283451310000007461472844188550843_);}
	.st8{fill:url(#SVGID_00000030485069233532763260000007901187831774066073_);}
	.st9{fill:url(#SVGID_00000174596506280718716550000009435197788940896926_);}
	.st10{fill:url(#SVGID_00000157305573298988828870000001013526023720468403_);}
	.st11{fill:url(#SVGID_00000160185611358235449450000003097466667328850817_);}
	.st12{fill:#AAD039;}
	.st13{fill:#15143F;}
	.st14{fill:url(#SVGID_00000176016160139785505670000004891486900252705974_);}
	.st15{fill:#285DAB;}
	.st16{fill:#41A5DD;}
	.st17{fill:#4CC8EF;}
	.st18{fill:#261F77;}
	.st19{fill:url(#SVGID_00000139974045079246162040000006905067864154845859_);}
	.st20{fill:url(#SVGID_00000069398317438529000500000002967421812192642237_);}
	.st21{fill:url(#SVGID_00000018951103208931499710000004156197354453246373_);}
	.st22{fill:url(#SVGID_00000132797799356196933880000012211771575940050106_);}
	.st23{fill:url(#SVGID_00000002351969234177832660000015641674705178868876_);}
	.st24{fill:url(#SVGID_00000151533903032217100400000010137048245585359788_);}
</style>
<g>
	
		<linearGradient id="SVGID_1_" gradientUnits="userSpaceOnUse" x1="-16921.7051" y1="-928.7704" x2="-16754.0215" y2="-1450.4557" gradientTransform="matrix(-1 0 0 -1 -16578.5098 -644.1102)">
		<stop  offset="0.5006" style="stop-color:#FFFFFF"/>
		<stop  offset="0.9017" style="stop-color:#FFFFFF;stop-opacity:0"/>
	</linearGradient>
	<path class="st0" d="M230.42,769.4c1.36,9.13,2.91,18.22,4.63,27.25H212.1c-1.62-8.54-3.05-17.1-4.34-25.71
		c-14.11-94.21-9.15-189.15,14.76-282.19c18.51-72.04,47.52-139.62,86.51-201.6c9.64-15.36,19.91-30.36,30.76-45.02h25.36
		c-32.19,42.42-59.18,87.97-80.76,136.21c-16.22,36.2-29.38,73.92-39.42,112.98C221.42,583,216.53,676.57,230.42,769.4z"/>
	<path class="st1" d="M313.61,709.55c8.53,56.92,24.06,112,46.38,164.59h-55.77c-19.67-50.44-33.62-102.92-41.71-156.95
		c-14.52-96.94-9.4-194.65,15.19-290.38c4.2-16.4,8.96-32.57,14.23-48.48c10.33-31.34,22.72-61.78,37.1-91.19
		c7.44-15.29,15.43-30.29,23.94-45.02h60.52c-38.8,60.57-67.56,126.79-85.73,197.54c-15.17,59.04-22.37,118.89-21.56,178.77
		C306.58,648.81,309.06,679.23,313.61,709.55z"/>
	
		<linearGradient id="SVGID_00000132048268473414743230000001116731781457208462_" gradientUnits="userSpaceOnUse" x1="388.8555" y1="1178.2666" x2="556.54" y2="656.5814" gradientTransform="matrix(1 0 0 1 1352.8125 -382.9268)">
		<stop  offset="0.5006" style="stop-color:#FFFFFF"/>
		<stop  offset="0.9017" style="stop-color:#FFFFFF;stop-opacity:0"/>
	</linearGradient>
	<path style="fill:url(#SVGID_00000132048268473414743230000001116731781457208462_);" d="M1854.44,310.6
		c-1.36-9.13-2.91-18.22-4.63-27.25h22.95c1.62,8.54,3.05,17.1,4.34,25.71c14.11,94.21,9.15,189.15-14.76,282.19
		c-18.51,72.04-47.52,139.62-86.51,201.6c-9.64,15.36-19.91,30.36-30.76,45.02h-25.36c32.19-42.42,59.18-87.97,80.76-136.21
		c16.22-36.2,29.38-73.92,39.42-112.98C1863.45,497,1868.34,403.43,1854.44,310.6z"/>
	<path class="st1" d="M1771.25,370.45c-8.53-56.92-24.06-112-46.38-164.59h55.77c19.67,50.44,33.62,102.92,41.71,156.95
		c14.52,96.94,9.4,194.65-15.19,290.38c-4.2,16.4-8.96,32.57-14.23,48.48c-10.33,31.34-22.72,61.78-37.1,91.19
		c-7.44,15.29-15.43,30.29-23.94,45.02h-60.52c38.8-60.57,67.56-126.79,85.73-197.54c15.17-59.04,22.37-118.89,21.56-178.77
		C1778.28,431.19,1775.8,400.77,1771.25,370.45z"/>
	<path class="st1" d="M762.41,343.51h-73.38c-3.83,0-6.94,3.11-6.94,6.94v234.78c0,54.25-19.27,77.83-65.26,77.83
		c-31.48,0-61.69-12.78-90.21-35.39c-4.37-3.46-10.78-0.43-10.78,5.15v70.8c0,4.12,1.89,8.23,5.46,10.3
		c28.59,16.6,53.23,27.14,95.53,28.36c94.72,2.76,152.5-52.24,152.5-148.2V350.45C769.34,346.62,766.24,343.51,762.41,343.51z
		 M1107.93,537.16c-2.45-0.84-2.77-4.15-0.48-5.37c14.26-7.63,45.12-29.98,45.12-80.38c0-70.75-47.76-107.9-139.72-107.9H851.16
		c-3.83,0-6.94,3.11-6.94,6.94v377.59c0,3.83,3.11,6.94,6.94,6.94h176.43c91.38,0,139.14-37.13,139.14-109.07
		C1166.73,563.61,1125.35,543.05,1107.93,537.16z M931.49,425.3c0-2.19,1.77-3.96,3.96-3.96h76.22c35.36,0,53.06,12.97,53.06,39.49
		c0,27.12-18.29,40.68-58.97,40.68h-70.32c-2.19,0-3.96-1.77-3.96-3.96V425.3z M1024.65,657.17h-89.19c-2.19,0-3.96-1.78-3.96-3.96
		v-74.62c0-2.19,1.77-3.96,3.96-3.96h83.87c40.09,0,58.97,14.74,58.97,41.85C1078.3,644.2,1060.61,657.17,1024.65,657.17z
		 M1513.4,618.24c0-74.86-38.91-110.24-142.08-121.45c-58.37-6.48-75.47-16.5-75.47-38.9c0-26.52,27.13-43.04,70.16-43.04
		c51.18,0,94.81,23.22,113.74,35.06c4.39,2.76,10.08-0.47,10.08-5.65v-70.96c0-4.4-2.31-8.49-6.12-10.7
		c-25.79-14.97-71.41-24.99-116.51-24.99c-99.05,0-158.01,47.15-158.01,125.57c0,71.92,38.91,105.54,139.72,116.73
		c59.55,6.49,77.83,17.1,77.83,40.68c0,28.3-25.35,43.04-73.11,43.04c-58.54,0-111.34-27.85-132.68-40.75
		c-4.41-2.67-9.99,0.53-9.99,5.7v71.45c0,4.15,1.98,8.11,5.48,10.33c31.48,20,79.52,30.5,140.14,30.5
		C1456.81,740.88,1513.4,696.66,1513.4,618.24z"/>
	<path class="st1" d="M521.84,301.51c26.61-34.89,56.32-66.86,88.9-95.65h-98.39c-15.88,17.17-30.98,35.13-45.28,53.87
		C406.9,338.6,363.79,427.69,338.91,524.55c-7.99,31.12-13.95,62.45-17.88,93.88c-8.28,66.43-7.46,133.35,2.51,199.93
		c2.81,18.79,6.34,37.39,10.54,55.78h70.87c-5.51-21.68-9.94-43.69-13.28-65.98c-13.33-88.94-8.63-178.59,13.95-266.46
		C428.21,453.82,467.3,373.01,521.84,301.51z M1761.32,261.64c-2.81-18.79-6.34-37.39-10.54-55.78h-70.87
		c5.51,21.68,9.94,43.69,13.28,65.98c13.33,88.94,8.63,178.59-13.95,266.46c-22.58,87.89-61.67,168.69-116.22,240.2
		c-26.61,34.89-56.32,66.86-88.9,95.65h98.39c15.88-17.17,30.98-35.13,45.28-53.87c60.17-78.88,103.28-167.97,128.17-264.83
		c7.99-31.12,13.95-62.45,17.88-93.88C1772.12,395.14,1771.29,328.22,1761.32,261.64z"/>
</g>
</svg>
