<?xml version="1.0" encoding="utf-8"?>
<!-- Generator: Adobe Illustrator 26.5.0, SVG Export Plug-In . SVG Version: 6.00 Build 0)  -->
<svg version="1.1" id="Layer_1" xmlns="http://www.w3.org/2000/svg" xmlns:xlink="http://www.w3.org/1999/xlink" x="0px" y="0px"
	 viewBox="0 0 2084.86 1080" style="enable-background:new 0 0 2084.86 1080;" xml:space="preserve">
<style type="text/css">
	.st0{fill:url(#SVGID_1_);}
	.st1{fill:#FFFFFF;}
	.st2{fill:url(#SVGID_00000101064986317864207170000003752145754848514218_);}
	.st3{fill:url(#SVGID_00000026858207159950437230000013144399097598246581_);}
	.st4{fill:url(#SVGID_00000160187041546532835310000010568306762601989556_);}
	.st5{fill:url(#SVGID_00000120531447196350381150000003151091307498287786_);}
	.st6{fill:url(#SVGID_00000047024100628558719880000016881858573087709348_);}
	.st7{fill:url(#SVGID_00000113316273556231652050000008111006563502175618_);}
	.st8{fill:url(#SVGID_00000125569254341028564030000010567473100577389699_);}
	.st9{fill:url(#SVGID_00000023984248711139828720000000125901508167165587_);}
	.st10{fill:url(#SVGID_00000055668370235344604140000016567227366103438494_);}
	.st11{fill:url(#SVGID_00000052067240530722268620000007191852401203800962_);}
	.st12{fill:#AAD039;}
	.st13{fill:#15143F;}
	.st14{fill:url(#SVGID_00000114032669172227859220000017800467846769183104_);}
	.st15{fill:#285DAB;}
	.st16{fill:#41A5DD;}
	.st17{fill:#4CC8EF;}
	.st18{fill:#261F77;}
	.st19{fill:url(#SVGID_00000174601620140894598390000010474787196328725409_);}
	.st20{fill:url(#SVGID_00000049206112518958844130000015014611458002064779_);}
	.st21{fill:url(#SVGID_00000014632960053506923460000009858574581835585977_);}
	.st22{fill:url(#SVGID_00000160190230443386873780000000081292112968193669_);}
	.st23{fill:url(#SVGID_00000106829474913796462070000013492944914958438021_);}
	.st24{fill:url(#SVGID_00000171704166055928801710000009296249569520441779_);}
</style>
<linearGradient id="SVGID_1_" gradientUnits="userSpaceOnUse" x1="-3959.3831" y1="-930.5745" x2="-3791.6985" y2="-1452.2598" gradientTransform="matrix(-1 0 0 -1 -3615.6875 -644.1102)">
	<stop  offset="0.5006" style="stop-color:#261F77"/>
	<stop  offset="0.9017" style="stop-color:#261F77;stop-opacity:0"/>
</linearGradient>
<path class="st0" d="M230.92,771.21c1.36,9.13,2.91,18.22,4.63,27.25H212.6c-1.62-8.54-3.05-17.1-4.34-25.71
	c-14.11-94.21-9.15-189.15,14.76-282.19c18.51-72.04,47.52-139.62,86.51-201.6c9.64-15.36,19.91-30.36,30.76-45.02h25.36
	c-32.19,42.42-59.18,87.97-80.76,136.21c-16.22,36.2-29.38,73.92-39.42,112.98C221.92,584.81,217.03,678.38,230.92,771.21z"/>
<path class="st18" d="M314.11,711.36c8.53,56.92,24.06,112,46.38,164.59h-55.77c-19.67-50.44-33.62-102.92-41.71-156.95
	c-14.52-96.94-9.4-194.65,15.19-290.38c4.2-16.4,8.96-32.57,14.23-48.48c10.33-31.34,22.72-61.78,37.1-91.19
	c7.44-15.29,15.43-30.29,23.94-45.02h60.52c-38.8,60.57-67.56,126.79-85.73,197.54c-15.17,59.04-22.37,118.89-21.56,178.77
	C307.08,650.61,309.56,681.03,314.11,711.36z"/>
<linearGradient id="SVGID_00000038396015078077302310000007461433460168936596_" gradientUnits="userSpaceOnUse" x1="389.3555" y1="1180.0707" x2="557.04" y2="658.3854" gradientTransform="matrix(1 0 0 1 1352.8125 -382.9268)">
	<stop  offset="0.5006" style="stop-color:#261F77"/>
	<stop  offset="0.9017" style="stop-color:#261F77;stop-opacity:0"/>
</linearGradient>
<path style="fill:url(#SVGID_00000038396015078077302310000007461433460168936596_);" d="M1854.94,312.4
	c-1.36-9.13-2.91-18.22-4.63-27.25h22.95c1.62,8.54,3.05,17.1,4.34,25.71c14.11,94.21,9.15,189.15-14.76,282.19
	c-18.51,72.04-47.52,139.62-86.51,201.6c-9.64,15.36-19.91,30.36-30.76,45.02h-25.36c32.19-42.42,59.18-87.97,80.76-136.21
	c16.22-36.2,29.38-73.92,39.42-112.98C1863.95,498.8,1868.84,405.23,1854.94,312.4z"/>
<path class="st18" d="M1771.75,372.25c-8.53-56.92-24.06-112-46.38-164.59h55.77c19.67,50.44,33.62,102.92,41.71,156.95
	c14.52,96.94,9.4,194.65-15.19,290.38c-4.2,16.4-8.96,32.57-14.23,48.48c-10.33,31.34-22.72,61.78-37.1,91.19
	c-7.44,15.29-15.43,30.29-23.94,45.02h-60.52c38.8-60.57,67.56-126.79,85.73-197.54c15.17-59.04,22.37-118.89,21.56-178.77
	C1778.78,432.99,1776.3,402.58,1771.75,372.25z"/>
<path class="st18" d="M762.91,345.32h-73.38c-3.83,0-6.94,3.11-6.94,6.94v234.78c0,54.25-19.27,77.83-65.26,77.83
	c-31.48,0-61.69-12.78-90.21-35.39c-4.37-3.46-10.78-0.43-10.78,5.15v70.8c0,4.12,1.89,8.23,5.46,10.3
	c28.59,16.6,53.23,27.14,95.53,28.36c94.72,2.76,152.5-52.24,152.5-148.2V352.25C769.84,348.42,766.74,345.32,762.91,345.32z
	 M1108.43,538.96c-2.45-0.84-2.77-4.15-0.48-5.37c14.26-7.63,45.12-29.98,45.12-80.38c0-70.75-47.76-107.9-139.72-107.9H851.66
	c-3.83,0-6.94,3.11-6.94,6.94v377.59c0,3.83,3.11,6.94,6.94,6.94h176.43c91.38,0,139.14-37.13,139.14-109.07
	C1167.23,565.42,1125.85,544.85,1108.43,538.96z M931.99,427.11c0-2.19,1.77-3.96,3.96-3.96h76.22c35.36,0,53.06,12.97,53.06,39.49
	c0,27.12-18.29,40.68-58.97,40.68h-70.32c-2.19,0-3.96-1.77-3.96-3.96V427.11z M1025.15,658.97h-89.19c-2.19,0-3.96-1.78-3.96-3.96
	v-74.62c0-2.19,1.77-3.96,3.96-3.96h83.87c40.09,0,58.97,14.74,58.97,41.85C1078.8,646,1061.11,658.97,1025.15,658.97z
	 M1513.9,620.05c0-74.86-38.91-110.24-142.08-121.45c-58.37-6.48-75.47-16.5-75.47-38.9c0-26.52,27.13-43.04,70.16-43.04
	c51.18,0,94.81,23.22,113.74,35.06c4.39,2.76,10.08-0.47,10.08-5.65v-70.96c0-4.4-2.31-8.49-6.12-10.7
	c-25.79-14.97-71.41-24.99-116.51-24.99c-99.05,0-158.01,47.15-158.01,125.57c0,71.92,38.91,105.54,139.72,116.73
	c59.55,6.49,77.83,17.1,77.83,40.68c0,28.3-25.35,43.04-73.11,43.04c-58.54,0-111.34-27.85-132.68-40.75
	c-4.41-2.67-9.99,0.53-9.99,5.7v71.45c0,4.15,1.98,8.11,5.48,10.33c31.48,20,79.52,30.5,140.14,30.5
	C1457.31,742.69,1513.9,698.46,1513.9,620.05z"/>
<path class="st18" d="M522.34,303.31c26.61-34.89,56.32-66.86,88.9-95.65h-98.39c-15.88,17.17-30.98,35.13-45.28,53.87
	C407.4,340.41,364.29,429.5,339.41,526.36c-7.99,31.12-13.95,62.45-17.88,93.88c-8.28,66.43-7.46,133.35,2.51,199.93
	c2.81,18.79,6.34,37.39,10.54,55.78h70.87c-5.51-21.68-9.94-43.69-13.28-65.98c-13.33-88.94-8.63-178.59,13.95-266.46
	C428.71,455.62,467.8,374.82,522.34,303.31z M1761.82,263.44c-2.81-18.79-6.34-37.39-10.54-55.78h-70.87
	c5.51,21.68,9.94,43.69,13.28,65.98c13.33,88.94,8.63,178.59-13.95,266.46c-22.58,87.89-61.67,168.69-116.22,240.2
	c-26.61,34.89-56.32,66.86-88.9,95.65h98.39c15.88-17.17,30.98-35.13,45.28-53.87c60.17-78.88,103.28-167.97,128.17-264.83
	c7.99-31.12,13.95-62.45,17.88-93.88C1772.62,396.95,1771.79,330.02,1761.82,263.44z"/>
</svg>
